<svg width="225" height="150" version="1.1" xmlns="http://www.w3.org/2000/svg">
<path d="M0,0v50h225V0H0z" fill="#ababab"/>
<path d="M0,50v50h225V50H0z" fill="#cfcfcf"/>
<path d="M0,100v50h225v-50H0z" fill="#bbb"/>
<path d="m102 135v-13.5h15.5v13.5z" fill="#727272"/>
<path d="m102 112v-24.6c0-2.87 2.72-6.34 7.9-10.4 4.19-3.17 7.79-5.75 10.1-7.73 2.43-1.98 4.29-3.32 5.06-4.01 5.19-5.45 9.2-11.2 9.2-17.3 0-3.86-2.04-6.94-6.13-9.2-3.97-2.37-8.85-3.47-14.5-3.27-5.96 0.099-10.3 0.826-13 1.81-4.3 2-7.45 4.22-10.5 9.29l-12.1-6.03c7.5-13 19.7-19 35.3-19 9.9 0 18.5 2.33 25.7 6.98 7.83 5.06 11.7 11.7 11.7 19.9 0 6.05-2.61 11.9-8.35 17.7-0.552 0.595-1.7 1.94-4.45 4.01-2.65 2.08-5.28 4.91-9.99 8.47-5.74 4.46-10.4 8.18-10.4 11.1v22.3z" fill="#7f7f7f"/>
</svg>
